# xmcd
#
# Track frame offsets: 
#        150
#        8759
#        18610
#        28605
#        38315
#        47716
#        59487
#        76666
#        88766
#        98726
#        112219
#        122447
#        128544
#        138953
#        151243
#        163748
#        176499
#        188733
#        198242
#        208219
#        219153
#        230449
#        239311
#        250199
#        262809
#        273739
#        284432
#        293438
#
# Disc length: 4044 seconds
#
# Revision: 0
# Processed by: cddbd v1.5.2PL0 Copyright (c) Steve Scherf et al.
# Submitted via: ExactAudioCopy v0.95b4
#
DISCID=790fca1c
DTITLE=Various Artist - Rockabilly Action
DYEAR=1900
DGENRE=Rockabilly
TTITLE0=Bo Rattliff and Country Kinfolk - Hey, Hey, Don't Tease Me
TTITLE1=Bobby Lee - I Got Some News For You
TTITLE2=Charles Ross and His Boys From Paris - Little Bit Lonesome
TTITLE3=Dude Standphill - Out Honky Tonkin' Again
TTITLE4=Art Ontario - Last Goodbye
TTITLE5=Bill Whittley - Fool Fool Fool
TTITLE6=Cleve Warnock - Boy And A Guitar
TTITLE7=Lonesome Willie Evans - Hillbilly Fever
TTITLE8=Carl Martin Trio - Ain't No Grave Gonna Hold My Body Down
TTITLE9=Mike Clay - It's Money
TTITLE10=Rick Johnson - Makin' Up My Mind
TTITLE11=John Poole - Shakin' Ana A Twisting
TTITLE12=Tommy Moreland - Playin' Hide Go Seek
TTITLE13=Bill Zekie Browning - I'll Pay You Back
TTITLE14=Leroy Wilkerson - Backfired
TTITLE15=Shorty Frog and His Space Cats - Sheddin' Tears Over You
TTITLE16=Curley Griffin - Rock Bottom Blues
TTITLE17=Johnny Huskey and The King Bee's - Red Dress
TTITLE18=Russel Spears - Beggin' Time
TTITLE19=Jimmy Simpson and The Oilfield Playboys - Blue As I Can Be
TTITLE20=Lonnie Irivng - I Got Blues On My Mind
TTITLE21=Jimmy Bankston - I Come From Louisiana
TTITLE22=Bob James and The Creations - As My Heart Is To You
TTITLE23=Walter Scott - I'm Walking Out
TTITLE24=Wibby Lee and Paul Allan - I'm Talking Not Walking The Blues
TTITLE25=Jimmy Welch - Searight Blues
TTITLE26=Bill Blevins - Baby I Won't Keep Waitin'
TTITLE27=The Emanons - Emanons Rock
EXTD=
EXTT0=
EXTT1=
EXTT2=
EXTT3=
EXTT4=
EXTT5=
EXTT6=
EXTT7=
EXTT8=
EXTT9=
EXTT10=
EXTT11=
EXTT12=
EXTT13=
EXTT14=
EXTT15=
EXTT16=
EXTT17=
EXTT18=
EXTT19=
EXTT20=
EXTT21=
EXTT22=
EXTT23=
EXTT24=
EXTT25=
EXTT26=
EXTT27=
PLAYORDER=
